<svg width="110" height="110" viewBox="0 0 110 110" fill="none" xmlns="http://www.w3.org/2000/svg">
<rect width="110" height="110" rx="15" fill="#16244A"/>
<path d="M12.2775 41.8C12.2775 38.088 14.1975 34.984 18.0375 32.488C21.9415 29.992 27.8935 28.744 35.8935 28.744C45.7495 28.744 50.6775 33.096 50.6775 41.8C50.6775 44.552 49.5895 47.176 47.4135 49.672C46.2615 50.952 43.6695 52.552 39.6375 54.472C37.3975 55.496 34.5175 56.392 30.9975 57.16C27.5415 57.928 25.7815 58.312 25.7175 58.312C23.7975 58.312 22.8375 57.352 22.8375 55.432C22.8375 54.024 23.7975 53.096 25.7175 52.648C27.6375 52.136 28.9815 51.784 29.7495 51.592C30.5815 51.4 31.9575 51.048 33.8775 50.536C35.7975 49.96 37.2375 49.416 38.1975 48.904C39.1575 48.392 40.2455 47.784 41.4615 47.08C43.7655 45.736 44.9175 43.848 44.9175 41.416C44.9175 38.92 44.3095 37.16 43.0935 36.136C41.9415 35.048 39.6055 34.504 36.0855 34.504C32.5655 34.504 29.5575 34.76 27.0615 35.272C24.5655 35.784 22.7095 36.424 21.4935 37.192C19.1895 38.728 18.0375 40.296 18.0375 41.896C18.0375 46.12 18.9015 52.392 20.6295 60.712C22.4215 69.032 23.7015 74.568 24.4695 77.32C25.3015 80.008 25.7175 81.608 25.7175 82.12C25.7175 84.04 24.7575 85 22.8375 85C21.9415 85 21.3015 84.776 20.9175 84.328C20.5335 83.88 19.8935 81.992 18.9975 78.664C18.1015 75.336 16.7575 69.512 14.9655 61.192C13.1735 52.808 12.2775 46.344 12.2775 41.8Z" fill="white"/>
<path d="M39.5707 73C37.464 73 36.4107 71.96 36.4107 69.88C36.4107 67.8 37.464 66.76 39.5707 66.76H42.6507V65.46C42.6507 64.8467 42.344 64.54 41.7307 64.54H37.4907V63.28L38.5307 62.5H41.8507C43.944 62.5 44.9907 63.5533 44.9907 65.66V73H39.5707ZM38.7507 70.04C38.7507 70.6533 39.0574 70.96 39.6707 70.96H42.6507V68.58H39.6707C39.0574 68.58 38.7507 68.88 38.7507 69.48V70.04ZM47.8282 73V63.8C48.3082 62.9333 49.2282 62.5 50.5882 62.5H52.6882L53.7482 63.28V64.54H51.1282C50.6749 64.54 50.3549 64.6533 50.1682 64.88V73H47.8282ZM55.7598 73V58.2H58.0998V66.96L62.1798 62.5H64.4798L64.6798 62.9L60.9998 66.88L64.9598 72.6L64.7598 73H62.4598L59.4598 68.56L58.0998 70.02V73H55.7598ZM69.5707 73C67.464 73 66.4107 71.96 66.4107 69.88C66.4107 67.8 67.464 66.76 69.5707 66.76H72.6507V65.46C72.6507 64.8467 72.344 64.54 71.7307 64.54H67.4907V63.28L68.5307 62.5H71.8507C73.944 62.5 74.9907 63.5533 74.9907 65.66V73H69.5707ZM68.7507 70.04C68.7507 70.6533 69.0574 70.96 69.6707 70.96H72.6507V68.58H69.6707C69.0574 68.58 68.7507 68.88 68.7507 69.48V70.04ZM77.8282 69.84V59.2H80.1682V62.5H83.7482V64.54H80.1682V70.04C80.1682 70.6533 80.4749 70.96 81.0882 70.96H83.9482V72.22L82.8882 73H80.9882C78.8815 73 77.8282 71.9467 77.8282 69.84ZM85.0499 62.86L85.2899 62.5H87.3099L89.9499 70.96H90.2499L92.8899 62.5H94.9099L95.1499 62.86L90.5699 77H88.5499L88.3099 76.64L89.5699 73H88.3499L85.0499 62.86Z" fill="white"/>
</svg>
